<?xml version="1.0" encoding="UTF-8" standalone="no"?>
<!DOCTYPE svg PUBLIC "-//W3C//DTD SVG 1.1//EN" "http://www.w3.org/Graphics/SVG/1.1/DTD/svg11.dtd">
<svg xmlns="http://www.w3.org/2000/svg" version="1.1" viewBox="0.00 0.00 118.00 45.00">
<g stroke-width="2.00" fill="none" stroke-linecap="butt">
<path stroke="#929292" vector-effect="non-scaling-stroke" d="
  M 113.75 6.12
  A 3.03 3.03 0.0 0 0 110.72 3.09
  A 3.03 3.03 0.0 0 0 107.69 6.12
  A 3.03 3.03 0.0 0 0 110.72 9.15
  A 3.03 3.03 0.0 0 0 113.75 6.12"
/>
<path stroke="#929292" vector-effect="non-scaling-stroke" d="
  M 18.47 32.49
  C 18.18 36.48 11.06 36.53 7.96 36.11
  A 0.63 0.63 0.0 0 0 7.25 36.74
  L 7.25 40.48
  Q 7.25 40.87 7.65 40.89
  C 16.15 41.40 23.54 40.87 23.52 30.51
  Q 23.50 20.44 23.50 10.28
  Q 23.50 9.75 22.96 9.74
  L 19.09 9.67
  A 0.59 0.58 -89.0 0 0 18.50 10.25
  Q 18.49 16.49 18.49 22.77
  C 18.50 30.20 9.08 28.33 9.04 24.43
  Q 8.98 17.37 9.00 10.26
  Q 9.00 9.76 8.50 9.76
  L 4.55 9.74
  Q 4.11 9.74 4.09 10.17
  C 3.57 20.62 1.10 35.67 17.96 32.05
  Q 18.51 31.94 18.47 32.49"
/>
<path stroke="#929292" vector-effect="non-scaling-stroke" d="
  M 45.51 19.50
  L 34.27 19.50
  Q 33.53 19.50 33.57 20.24
  L 33.73 22.80
  Q 33.78 23.50 34.48 23.50
  L 50.96 23.50
  Q 51.38 23.50 51.43 23.09
  C 52.60 13.01 41.52 5.98 32.90 11.15
  C 18.60 19.72 33.43 41.37 47.53 30.00
  A 0.54 0.54 0.0 0 0 47.58 29.20
  L 44.95 26.57
  A 0.71 0.70 -38.9 0 0 44.07 26.48
  C 35.26 32.28 27.30 20.58 35.78 15.30
  C 39.23 13.16 44.77 14.66 45.92 18.96
  Q 46.07 19.50 45.51 19.50"
/>
<path stroke="#929292" vector-effect="non-scaling-stroke" d="
  M 77.65 18.32
  C 75.04 5.74 54.87 6.33 54.14 20.26
  C 53.62 30.05 61.58 34.61 70.46 32.15
  Q 71.00 32.00 71.00 31.44
  L 71.00 27.00
  Q 71.00 26.24 70.33 26.60
  Q 66.18 28.83 62.55 26.96
  C 55.17 23.17 60.48 11.19 68.95 15.28
  C 72.30 16.90 72.69 19.31 72.69 22.76
  Q 72.69 27.81 72.57 32.99
  A 1.38 1.34 -24.2 0 1 72.22 33.87
  C 69.39 37.13 63.68 36.21 59.75 36.26
  A 0.51 0.51 0.0 0 0 59.25 36.77
  L 59.25 40.28
  Q 59.25 40.88 59.85 40.91
  C 69.31 41.32 77.28 41.94 77.92 30.41
  Q 78.40 21.93 77.65 18.32"
/>
<path stroke="#929292" vector-effect="non-scaling-stroke" d="
  M 98.30 10.72
  C 90.47 7.15 81.87 10.70 80.74 19.77
  C 79.52 29.51 88.26 34.47 96.92 32.22
  Q 97.44 32.09 97.46 31.56
  L 97.60 26.93
  A 0.42 0.42 0.0 0 0 96.99 26.54
  Q 93.36 28.43 90.49 27.54
  C 82.21 24.95 85.89 11.94 94.45 14.78
  C 101.20 17.02 99.46 24.53 99.52 29.98
  C 99.61 37.92 91.76 36.24 86.53 36.26
  Q 86.00 36.26 86.00 36.79
  L 86.00 40.22
  Q 86.00 40.81 86.58 40.85
  C 97.10 41.65 104.53 41.43 104.51 29.04
  C 104.50 22.14 106.06 14.25 98.30 10.72"
/>
<path stroke="#929292" vector-effect="non-scaling-stroke" d="
  M 113.24 11.11
  A 0.43 0.43 0.0 0 0 112.81 10.68
  L 108.65 10.68
  A 0.43 0.43 0.0 0 0 108.22 11.11
  L 108.22 32.55
  A 0.43 0.43 0.0 0 0 108.65 32.98
  L 112.81 32.98
  A 0.43 0.43 0.0 0 0 113.24 32.55
  L 113.24 11.11"
/>
</g>
<path fill="#f1f1f1" d="
  M 0.00 0.00
  L 118.00 0.00
  L 118.00 45.00
  L 0.00 45.00
  L 0.00 0.00
  Z
  M 113.75 6.12
  A 3.03 3.03 0.0 0 0 110.72 3.09
  A 3.03 3.03 0.0 0 0 107.69 6.12
  A 3.03 3.03 0.0 0 0 110.72 9.15
  A 3.03 3.03 0.0 0 0 113.75 6.12
  Z
  M 18.47 32.49
  C 18.18 36.48 11.06 36.53 7.96 36.11
  A 0.63 0.63 0.0 0 0 7.25 36.74
  L 7.25 40.48
  Q 7.25 40.87 7.65 40.89
  C 16.15 41.40 23.54 40.87 23.52 30.51
  Q 23.50 20.44 23.50 10.28
  Q 23.50 9.75 22.96 9.74
  L 19.09 9.67
  A 0.59 0.58 -89.0 0 0 18.50 10.25
  Q 18.49 16.49 18.49 22.77
  C 18.50 30.20 9.08 28.33 9.04 24.43
  Q 8.98 17.37 9.00 10.26
  Q 9.00 9.76 8.50 9.76
  L 4.55 9.74
  Q 4.11 9.74 4.09 10.17
  C 3.57 20.62 1.10 35.67 17.96 32.05
  Q 18.51 31.94 18.47 32.49
  Z
  M 45.51 19.50
  L 34.27 19.50
  Q 33.53 19.50 33.57 20.24
  L 33.73 22.80
  Q 33.78 23.50 34.48 23.50
  L 50.96 23.50
  Q 51.38 23.50 51.43 23.09
  C 52.60 13.01 41.52 5.98 32.90 11.15
  C 18.60 19.72 33.43 41.37 47.53 30.00
  A 0.54 0.54 0.0 0 0 47.58 29.20
  L 44.95 26.57
  A 0.71 0.70 -38.9 0 0 44.07 26.48
  C 35.26 32.28 27.30 20.58 35.78 15.30
  C 39.23 13.16 44.77 14.66 45.92 18.96
  Q 46.07 19.50 45.51 19.50
  Z
  M 77.65 18.32
  C 75.04 5.74 54.87 6.33 54.14 20.26
  C 53.62 30.05 61.58 34.61 70.46 32.15
  Q 71.00 32.00 71.00 31.44
  L 71.00 27.00
  Q 71.00 26.24 70.33 26.60
  Q 66.18 28.83 62.55 26.96
  C 55.17 23.17 60.48 11.19 68.95 15.28
  C 72.30 16.90 72.69 19.31 72.69 22.76
  Q 72.69 27.81 72.57 32.99
  A 1.38 1.34 -24.2 0 1 72.22 33.87
  C 69.39 37.13 63.68 36.21 59.75 36.26
  A 0.51 0.51 0.0 0 0 59.25 36.77
  L 59.25 40.28
  Q 59.25 40.88 59.85 40.91
  C 69.31 41.32 77.28 41.94 77.92 30.41
  Q 78.40 21.93 77.65 18.32
  Z
  M 98.30 10.72
  C 90.47 7.15 81.87 10.70 80.74 19.77
  C 79.52 29.51 88.26 34.47 96.92 32.22
  Q 97.44 32.09 97.46 31.56
  L 97.60 26.93
  A 0.42 0.42 0.0 0 0 96.99 26.54
  Q 93.36 28.43 90.49 27.54
  C 82.21 24.95 85.89 11.94 94.45 14.78
  C 101.20 17.02 99.46 24.53 99.52 29.98
  C 99.61 37.92 91.76 36.24 86.53 36.26
  Q 86.00 36.26 86.00 36.79
  L 86.00 40.22
  Q 86.00 40.81 86.58 40.85
  C 97.10 41.65 104.53 41.43 104.51 29.04
  C 104.50 22.14 106.06 14.25 98.30 10.72
  Z
  M 113.24 11.11
  A 0.43 0.43 0.0 0 0 112.81 10.68
  L 108.65 10.68
  A 0.43 0.43 0.0 0 0 108.22 11.11
  L 108.22 32.55
  A 0.43 0.43 0.0 0 0 108.65 32.98
  L 112.81 32.98
  A 0.43 0.43 0.0 0 0 113.24 32.55
  L 113.24 11.11
  Z"
/>
<circle fill="#333333" cx="110.72" cy="6.12" r="3.03"/>
<path fill="#333333" d="
  M 17.96 32.05
  C 1.10 35.67 3.57 20.62 4.09 10.17
  Q 4.11 9.74 4.55 9.74
  L 8.50 9.76
  Q 9.00 9.76 9.00 10.26
  Q 8.98 17.37 9.04 24.43
  C 9.08 28.33 18.50 30.20 18.49 22.77
  Q 18.49 16.49 18.50 10.25
  A 0.59 0.58 -89.0 0 1 19.09 9.67
  L 22.96 9.74
  Q 23.50 9.75 23.50 10.28
  Q 23.50 20.44 23.52 30.51
  C 23.54 40.87 16.15 41.40 7.65 40.89
  Q 7.25 40.87 7.25 40.48
  L 7.25 36.74
  A 0.63 0.63 0.0 0 1 7.96 36.11
  C 11.06 36.53 18.18 36.48 18.47 32.49
  Q 18.51 31.94 17.96 32.05
  Z"
/>
<path fill="#333333" d="
  M 45.92 18.96
  C 44.77 14.66 39.23 13.16 35.78 15.30
  C 27.30 20.58 35.26 32.28 44.07 26.48
  A 0.71 0.70 -38.9 0 1 44.95 26.57
  L 47.58 29.20
  A 0.54 0.54 0.0 0 1 47.53 30.00
  C 33.43 41.37 18.60 19.72 32.90 11.15
  C 41.52 5.98 52.60 13.01 51.43 23.09
  Q 51.38 23.50 50.96 23.50
  L 34.48 23.50
  Q 33.78 23.50 33.73 22.80
  L 33.57 20.24
  Q 33.53 19.50 34.27 19.50
  L 45.51 19.50
  Q 46.07 19.50 45.92 18.96
  Z"
/>
<path fill="#333333" d="
  M 54.14 20.26
  C 54.87 6.33 75.04 5.74 77.65 18.32
  Q 78.40 21.93 77.92 30.41
  C 77.28 41.94 69.31 41.32 59.85 40.91
  Q 59.25 40.88 59.25 40.28
  L 59.25 36.77
  A 0.51 0.51 0.0 0 1 59.75 36.26
  C 63.68 36.21 69.39 37.13 72.22 33.87
  A 1.38 1.34 -24.2 0 0 72.57 32.99
  Q 72.69 27.81 72.69 22.76
  C 72.69 19.31 72.30 16.90 68.95 15.28
  C 60.48 11.19 55.17 23.17 62.55 26.96
  Q 66.18 28.83 70.33 26.60
  Q 71.00 26.24 71.00 27.00
  L 71.00 31.44
  Q 71.00 32.00 70.46 32.15
  C 61.58 34.61 53.62 30.05 54.14 20.26
  Z"
/>
<path fill="#333333" d="
  M 98.30 10.72
  C 106.06 14.25 104.50 22.14 104.51 29.04
  C 104.53 41.43 97.10 41.65 86.58 40.85
  Q 86.00 40.81 86.00 40.22
  L 86.00 36.79
  Q 86.00 36.26 86.53 36.26
  C 91.76 36.24 99.61 37.92 99.52 29.98
  C 99.46 24.53 101.20 17.02 94.45 14.78
  C 85.89 11.94 82.21 24.95 90.49 27.54
  Q 93.36 28.43 96.99 26.54
  A 0.42 0.42 0.0 0 1 97.60 26.93
  L 97.46 31.56
  Q 97.44 32.09 96.92 32.22
  C 88.26 34.47 79.52 29.51 80.74 19.77
  C 81.87 10.70 90.47 7.15 98.30 10.72
  Z"
/>
<rect fill="#333333" x="108.22" y="10.68" width="5.02" height="22.30" rx="0.43"/>
</svg>
