<?xml version="1.0" encoding="UTF-8" standalone="no"?>
<!DOCTYPE svg PUBLIC "-//W3C//DTD SVG 1.1//EN" "http://www.w3.org/Graphics/SVG/1.1/DTD/svg11.dtd">
<svg xmlns="http://www.w3.org/2000/svg" version="1.1" viewBox="0.00 0.00 691.00 361.00">
<path fill="#474654" d="
  M 121.50 54.82
  C 140.30 54.88 156.76 68.40 160.51 86.60
  Q 161.40 90.90 161.49 106.53
  Q 161.57 120.57 161.47 134.72
  Q 161.47 135.24 160.95 135.24
  Q 101.66 135.28 42.38 135.23
  C 19.16 135.21 1.03 119.22 0.26 95.75
  C -0.31 78.41 11.95 61.14 29.06 56.36
  Q 34.65 54.80 48.22 54.77
  Q 84.85 54.70 121.50 54.82
  Z
  M 60.52 95.00
  A 20.01 20.01 0.0 0 0 40.51 74.99
  A 20.01 20.01 0.0 0 0 20.50 95.00
  A 20.01 20.01 0.0 0 0 40.51 115.01
  A 20.01 20.01 0.0 0 0 60.52 95.00
  Z
  M 141.16 94.99
  A 20.01 20.01 0.0 0 0 121.15 74.98
  A 20.01 20.01 0.0 0 0 101.14 94.99
  A 20.01 20.01 0.0 0 0 121.15 115.00
  A 20.01 20.01 0.0 0 0 141.16 94.99
  Z"
/>
<path fill="#ffbc01" d="
  M 238.31 64.69
  C 262.56 86.14 253.51 125.28 222.21 133.93
  Q 217.54 135.21 210.05 135.24
  Q 191.02 135.29 172.01 135.23
  Q 171.48 135.23 171.48 134.70
  Q 171.55 119.90 171.47 105.13
  Q 171.39 91.36 172.79 85.51
  C 179.82 56.30 215.64 44.63 238.31 64.69
  Z
  M 231.83 95.00
  A 19.95 19.95 0.0 0 0 211.88 75.05
  A 19.95 19.95 0.0 0 0 191.93 95.00
  A 19.95 19.95 0.0 0 0 211.88 114.95
  A 19.95 19.95 0.0 0 0 231.83 95.00
  Z"
/>
<path fill="#474654" d="
  M 644.08 96.32
  C 635.83 90.21 635.61 76.93 644.96 71.22
  C 656.07 64.44 672.66 65.42 680.54 76.88
  Q 680.86 77.35 680.45 77.73
  L 674.41 83.41
  A 0.56 0.56 0.0 0 1 673.57 83.32
  Q 666.50 73.11 655.09 75.77
  C 649.14 77.16 643.92 84.23 650.30 89.03
  C 653.74 91.61 659.39 92.77 664.49 93.79
  C 675.06 95.92 685.47 104.61 679.74 116.94
  Q 675.73 125.56 664.74 127.52
  Q 646.66 130.74 634.98 117.15
  A 0.58 0.58 0.0 0 1 634.99 116.38
  L 641.17 109.78
  A 0.56 0.56 0.0 0 1 642.03 109.84
  Q 646.45 116.09 650.50 117.96
  C 655.93 120.46 663.75 120.96 668.74 117.07
  C 672.58 114.08 672.28 108.54 668.44 105.77
  C 661.56 100.80 651.72 101.99 644.08 96.32
  Z"
/>
<path fill="#474654" d="
  M 619.30 76.76
  Q 619.82 77.31 619.28 77.84
  L 614.05 83.07
  A 0.86 0.85 42.7 0 1 612.88 83.11
  C 601.03 72.69 582.07 73.81 575.37 89.57
  C 568.68 105.32 582.56 119.91 598.25 119.11
  C 604.71 118.78 614.43 114.14 613.71 106.37
  Q 613.65 105.75 613.03 105.75
  L 596.75 105.75
  Q 596.25 105.75 596.25 105.25
  L 596.25 97.25
  Q 596.25 96.75 596.75 96.75
  L 623.28 96.75
  Q 623.91 96.75 623.99 97.37
  C 629.71 138.86 563.72 137.32 563.95 97.50
  C 564.11 69.37 600.88 57.19 619.30 76.76
  Z"
/>
<path fill="#474654" d="
  M 684.35 71.26
  A 0.31 0.31 0.0 0 1 683.82 71.45
  L 683.57 71.20
  Q 683.37 71.00 683.45 70.72
  Q 683.92 69.08 682.73 68.10
  A 0.35 0.35 0.0 0 1 682.98 67.48
  L 686.77 67.71
  Q 687.25 67.74 687.43 68.17
  Q 688.16 69.86 686.65 70.97
  A 0.45 0.45 0.0 0 1 685.99 70.40
  Q 686.64 69.17 685.71 68.04
  A 0.60 0.60 0.0 0 0 684.65 68.36
  L 684.35 71.26
  Z"
/>
<path fill="#474654" d="
  M 691.00 70.34
  L 691.00 71.12
  Q 688.65 70.47 689.73 67.69
  A 0.44 0.43 -48.3 0 1 690.52 67.64
  Q 690.96 68.48 691.00 70.34
  Z"
/>
<path fill="#474654" d="
  M 294.67 67.75
  L 338.63 67.75
  A 0.62 0.62 0.0 0 1 339.25 68.37
  L 339.25 75.86
  A 0.62 0.62 0.0 0 1 338.63 76.48
  L 321.87 76.55
  A 0.62 0.62 0.0 0 0 321.25 77.17
  L 321.25 126.63
  A 0.62 0.62 0.0 0 1 320.63 127.25
  L 312.12 127.25
  A 0.62 0.62 0.0 0 1 311.50 126.63
  L 311.50 77.15
  A 0.62 0.62 0.0 0 0 310.88 76.53
  L 294.60 76.52
  A 0.62 0.62 0.0 0 1 293.98 75.90
  L 294.05 68.37
  A 0.62 0.62 0.0 0 1 294.67 67.75
  Z"
/>
<path fill="#474654" d="
  M 365.82 93.25
  L 395.93 93.25
  A 0.57 0.57 0.0 0 0 396.50 92.68
  L 396.50 68.32
  A 0.57 0.57 0.0 0 1 397.07 67.75
  L 405.68 67.75
  A 0.57 0.57 0.0 0 1 406.25 68.32
  L 406.25 126.68
  A 0.57 0.57 0.0 0 1 405.68 127.25
  L 397.07 127.25
  A 0.57 0.57 0.0 0 1 396.50 126.68
  L 396.50 102.57
  A 0.57 0.57 0.0 0 0 395.93 102.00
  L 365.79 102.00
  A 0.57 0.57 0.0 0 0 365.22 102.57
  L 365.26 126.68
  A 0.57 0.57 0.0 0 1 364.69 127.25
  L 356.08 127.25
  A 0.57 0.57 0.0 0 1 355.51 126.68
  L 355.50 68.32
  A 0.57 0.57 0.0 0 1 356.07 67.75
  L 364.68 67.75
  A 0.57 0.57 0.0 0 1 365.25 68.32
  L 365.25 92.68
  A 0.57 0.57 0.0 0 0 365.82 93.25
  Z"
/>
<path fill="#474654" d="
  M 446.10 67.75
  L 455.41 67.75
  A 0.39 0.39 0.0 0 1 455.77 67.99
  L 479.51 126.71
  A 0.39 0.39 0.0 0 1 479.15 127.25
  L 469.59 127.25
  A 0.39 0.39 0.0 0 1 469.22 127.00
  L 463.60 112.75
  A 0.39 0.39 0.0 0 0 463.23 112.50
  L 437.53 112.50
  A 0.39 0.39 0.0 0 0 437.16 112.75
  L 431.55 127.00
  A 0.39 0.39 0.0 0 1 431.18 127.25
  L 422.17 127.25
  A 0.39 0.39 0.0 0 1 421.81 126.71
  L 445.74 67.99
  A 0.39 0.39 0.0 0 1 446.10 67.75
  Z
  M 450.58 79.16
  A 0.33 0.33 0.0 0 0 449.96 79.17
  L 441.13 103.04
  A 0.33 0.33 0.0 0 0 441.44 103.48
  L 459.36 103.54
  A 0.33 0.33 0.0 0 0 459.67 103.09
  L 450.58 79.16
  Z"
/>
<path fill="#474654" d="
  M 503.53 82.96
  Q 505.46 104.77 504.58 126.67
  Q 504.56 127.25 503.97 127.25
  L 495.65 127.25
  A 0.66 0.65 0.4 0 1 494.99 126.59
  L 495.03 68.45
  A 0.71 0.70 0.0 0 1 495.74 67.75
  L 503.31 67.75
  Q 503.85 67.75 504.18 68.17
  L 539.74 113.47
  A 0.16 0.16 0.0 0 0 540.02 113.36
  Q 538.12 90.92 538.89 68.40
  Q 538.91 67.75 539.56 67.75
  L 548.00 67.75
  A 0.75 0.75 0.0 0 1 548.75 68.50
  L 548.75 126.62
  Q 548.75 127.25 548.13 127.25
  L 540.12 127.25
  Q 539.63 127.25 539.32 126.86
  L 503.97 82.78
  Q 503.46 82.14 503.53 82.96
  Z"
/>
<path fill="#474654" d="
  M 688.19 71.06
  Q 687.86 70.69 688.05 70.11
  A 0.30 0.30 0.0 0 1 688.59 70.04
  L 688.91 70.52
  A 0.56 0.56 0.0 0 1 688.76 71.28
  Q 688.25 71.64 688.19 71.06
  Z"
/>
<path fill="#7c7b80" d="
  M 120.51 306.22
  C 102.99 306.09 86.93 293.73 82.30 276.80
  Q 80.79 271.30 80.78 256.93
  Q 80.74 226.59 80.73 196.26
  Q 80.73 181.90 82.00 176.36
  C 86.08 158.55 102.02 145.66 120.81 145.43
  Q 140.90 145.19 160.97 145.25
  A 0.53 0.53 0.0 0 1 161.50 145.78
  Q 161.50 204.78 161.50 264.00
  C 161.51 287.61 144.50 306.41 120.51 306.22
  Z
  M 141.18 185.58
  A 20.03 20.03 0.0 0 0 121.15 165.55
  A 20.03 20.03 0.0 0 0 101.12 185.58
  A 20.03 20.03 0.0 0 0 121.15 205.61
  A 20.03 20.03 0.0 0 0 141.18 185.58
  Z
  M 141.17 266.08
  A 20.04 20.04 0.0 0 0 121.13 246.04
  A 20.04 20.04 0.0 0 0 101.09 266.08
  A 20.04 20.04 0.0 0 0 121.13 286.12
  A 20.04 20.04 0.0 0 0 141.17 266.08
  Z"
/>
</svg>
