<?xml version="1.0" encoding="UTF-8" standalone="no"?>
<!DOCTYPE svg PUBLIC "-//W3C//DTD SVG 1.1//EN" "http://www.w3.org/Graphics/SVG/1.1/DTD/svg11.dtd">
<svg xmlns="http://www.w3.org/2000/svg" version="1.1" viewBox="0.00 0.00 192.00 192.00">
<g stroke-width="2.00" fill="none" stroke-linecap="butt">
<path stroke="#92c5fd" vector-effect="non-scaling-stroke" d="
  M 159.88 96.00
  A 63.69 63.69 0.0 0 0 96.19 32.31
  A 63.69 63.69 0.0 0 0 32.50 96.00
  A 63.69 63.69 0.0 0 0 96.19 159.69
  A 63.69 63.69 0.0 0 0 159.88 96.00"
/>
<path stroke="#92c5fd" vector-effect="non-scaling-stroke" d="
  M 151.01 96.00
  A 54.82 54.82 0.0 0 0 96.19 41.18
  A 54.82 54.82 0.0 0 0 41.37 96.00
  A 54.82 54.82 0.0 0 0 96.19 150.82
  A 54.82 54.82 0.0 0 0 151.01 96.00"
/>
<path stroke="#92c5fd" vector-effect="non-scaling-stroke" d="
  M 65.00 82.31
  A 0.50 0.50 0.0 0 0 65.50 82.81
  L 88.00 83.04
  A 0.50 0.50 0.0 0 1 88.50 83.54
  L 88.50 136.95
  A 0.50 0.50 0.0 0 0 89.00 137.45
  L 103.37 137.46
  A 0.50 0.50 0.0 0 0 103.87 136.96
  L 104.03 83.50
  A 0.50 0.50 0.0 0 1 104.53 83.00
  L 126.75 83.00
  A 0.50 0.50 0.0 0 0 127.25 82.50
  L 127.25 68.00
  A 0.50 0.50 0.0 0 0 126.75 67.50
  L 65.50 67.49
  A 0.50 0.50 0.0 0 0 65.00 67.99
  L 65.00 82.31"
/>
</g>
<path fill="#248bfb" d="
  M 49.57 0.00
  L 141.80 0.00
  C 175.13 0.63 191.69 17.26 191.74 50.75
  Q 191.81 94.18 191.72 137.60
  Q 191.70 145.22 191.32 149.76
  C 189.65 169.46 180.06 184.04 160.70 189.75
  Q 153.35 191.92 138.68 192.00
  L 50.20 192.00
  Q 38.75 191.55 33.48 190.32
  C 12.66 185.44 0.31 168.90 0.28 147.76
  Q 0.19 100.26 0.29 52.77
  Q 0.32 38.60 1.65 32.88
  C 5.34 16.95 17.28 4.89 33.66 1.78
  Q 41.55 0.28 49.57 0.00
  Z
  M 159.88 96.00
  A 63.69 63.69 0.0 0 0 96.19 32.31
  A 63.69 63.69 0.0 0 0 32.50 96.00
  A 63.69 63.69 0.0 0 0 96.19 159.69
  A 63.69 63.69 0.0 0 0 159.88 96.00
  Z"
/>
<path fill="#ffffff" d="
  M 159.88 96.00
  A 63.69 63.69 0.0 0 1 96.19 159.69
  A 63.69 63.69 0.0 0 1 32.50 96.00
  A 63.69 63.69 0.0 0 1 96.19 32.31
  A 63.69 63.69 0.0 0 1 159.88 96.00
  Z
  M 151.01 96.00
  A 54.82 54.82 0.0 0 0 96.19 41.18
  A 54.82 54.82 0.0 0 0 41.37 96.00
  A 54.82 54.82 0.0 0 0 96.19 150.82
  A 54.82 54.82 0.0 0 0 151.01 96.00
  Z"
/>
<path fill="#248bfb" d="
  M 151.01 96.00
  A 54.82 54.82 0.0 0 1 96.19 150.82
  A 54.82 54.82 0.0 0 1 41.37 96.00
  A 54.82 54.82 0.0 0 1 96.19 41.18
  A 54.82 54.82 0.0 0 1 151.01 96.00
  Z
  M 65.00 82.31
  A 0.50 0.50 0.0 0 0 65.50 82.81
  L 88.00 83.04
  A 0.50 0.50 0.0 0 1 88.50 83.54
  L 88.50 136.95
  A 0.50 0.50 0.0 0 0 89.00 137.45
  L 103.37 137.46
  A 0.50 0.50 0.0 0 0 103.87 136.96
  L 104.03 83.50
  A 0.50 0.50 0.0 0 1 104.53 83.00
  L 126.75 83.00
  A 0.50 0.50 0.0 0 0 127.25 82.50
  L 127.25 68.00
  A 0.50 0.50 0.0 0 0 126.75 67.50
  L 65.50 67.49
  A 0.50 0.50 0.0 0 0 65.00 67.99
  L 65.00 82.31
  Z"
/>
<path fill="#ffffff" d="
  M 65.00 82.31
  L 65.00 67.99
  A 0.50 0.50 0.0 0 1 65.50 67.49
  L 126.75 67.50
  A 0.50 0.50 0.0 0 1 127.25 68.00
  L 127.25 82.50
  A 0.50 0.50 0.0 0 1 126.75 83.00
  L 104.53 83.00
  A 0.50 0.50 0.0 0 0 104.03 83.50
  L 103.87 136.96
  A 0.50 0.50 0.0 0 1 103.37 137.46
  L 89.00 137.45
  A 0.50 0.50 0.0 0 1 88.50 136.95
  L 88.50 83.54
  A 0.50 0.50 0.0 0 0 88.00 83.04
  L 65.50 82.81
  A 0.50 0.50 0.0 0 1 65.00 82.31
  Z"
/>
</svg>
