<?xml version="1.0" encoding="UTF-8" standalone="no"?>
<!DOCTYPE svg PUBLIC "-//W3C//DTD SVG 1.1//EN" "http://www.w3.org/Graphics/SVG/1.1/DTD/svg11.dtd">
<svg xmlns="http://www.w3.org/2000/svg" version="1.1" viewBox="0.00 0.00 904.00 276.00">
<path fill="#e87d0d" d="
  M 131.39 103.01
  Q 106.59 102.94 81.25 103.02
  C 75.18 103.04 68.60 100.30 67.57 93.77
  C 66.00 83.85 77.74 77.22 86.26 77.24
  Q 136.89 77.38 187.54 76.87
  Q 188.22 76.86 187.70 76.43
  Q 172.59 63.83 157.42 51.59
  C 155.57 50.10 153.47 48.66 152.51 46.47
  C 147.77 35.67 162.54 29.75 170.64 31.94
  Q 174.39 32.95 180.99 38.00
  Q 216.17 64.95 251.35 91.89
  Q 257.20 96.38 262.66 101.33
  C 301.38 136.47 296.08 194.39 253.80 224.07
  C 209.93 254.87 146.01 243.64 118.73 196.30
  Q 108.57 178.66 109.95 158.72
  Q 109.99 158.16 109.56 158.52
  Q 86.17 177.66 62.76 196.75
  Q 56.92 201.51 53.62 202.85
  C 39.85 208.42 26.76 200.15 31.76 184.02
  C 33.03 179.94 37.68 175.71 41.70 172.62
  Q 85.90 138.64 131.60 103.66
  Q 132.44 103.02 131.39 103.01
  Z
  M 253.7279 152.0923
  A 54.74 49.64 -0.5 0 0 198.5568 102.9319
  A 54.74 49.64 -0.5 0 0 144.2521 153.0477
  A 54.74 49.64 -0.5 0 0 199.4232 202.2081
  A 54.74 49.64 -0.5 0 0 253.7279 152.0923
  Z"
/>
<path fill="#265787" d="
  M 325.99 188.52
  L 325.99 193.35
  A 0.65 0.65 0.0 0 1 325.34 194.00
  L 304.75 194.00
  Q 304.00 194.00 304.00 193.25
  L 304.00 99.47
  A 0.42 0.41 -82.6 0 1 304.52 99.06
  L 325.35 104.41
  Q 326.02 104.59 326.02 105.28
  L 325.96 130.82
  A 0.22 0.21 -22.4 0 0 326.33 130.97
  C 339.10 118.43 362.14 120.48 375.79 128.91
  C 386.56 135.57 392.23 149.33 391.25 162.07
  C 389.98 178.80 379.08 191.11 362.49 194.98
  C 350.64 197.74 336.32 196.71 326.86 188.14
  A 0.52 0.52 0.0 0 0 325.99 188.52
  Z
  M 367.5060 157.7018
  A 18.17 18.17 0.0 0 0 349.3996 139.4685
  L 344.6196 139.4518
  A 18.17 18.17 0.0 0 0 326.3863 157.5582
  L 326.3740 161.0782
  A 18.17 18.17 0.0 0 0 344.4804 179.3115
  L 349.2604 179.3282
  A 18.17 18.17 0.0 0 0 367.4937 161.2218
  L 367.5060 157.7018
  Z"
/>
<path fill="#265787" d="
  M 665.75 187.99
  A 0.30 0.29 -22.0 0 0 665.25 187.78
  Q 659.46 193.33 651.57 195.09
  C 634.10 199.00 614.03 193.64 605.13 177.45
  C 595.47 159.88 600.95 136.88 619.13 127.20
  C 633.37 119.62 652.77 120.02 665.44 130.70
  A 0.20 0.20 0.0 0 0 665.77 130.55
  L 665.74 105.18
  Q 665.74 104.59 666.31 104.45
  L 687.23 99.07
  Q 687.75 98.93 687.75 99.47
  L 687.75 193.50
  A 0.50 0.50 0.0 0 1 687.25 194.00
  L 666.50 194.00
  Q 665.75 194.00 665.75 193.25
  L 665.75 187.99
  Z
  M 665.5437 157.5582
  A 18.17 18.17 0.0 0 0 647.3104 139.4517
  L 642.4904 139.4685
  A 18.17 18.17 0.0 0 0 624.3840 157.7018
  L 624.3963 161.2218
  A 18.17 18.17 0.0 0 0 642.6296 179.3283
  L 647.4496 179.3115
  A 18.17 18.17 0.0 0 0 665.5560 161.0782
  L 665.5437 157.5582
  Z"
/>
<rect fill="#265787" x="396.75" y="104.50" width="22.00" height="89.50" rx="0.63"/>
<path fill="#265787" d="
  M 862.22 115.90
  A 8.44 8.44 0.0 0 1 853.78 124.34
  A 8.44 8.44 0.0 0 1 845.34 115.90
  A 8.44 8.44 0.0 0 1 853.78 107.46
  A 8.44 8.44 0.0 0 1 862.22 115.90
  Z
  M 860.83 115.94
  A 7.08 7.08 0.0 0 0 853.75 108.86
  A 7.08 7.08 0.0 0 0 846.67 115.94
  A 7.08 7.08 0.0 0 0 853.75 123.02
  A 7.08 7.08 0.0 0 0 860.83 115.94
  Z"
/>
<path fill="#265787" d="
  M 852.50 117.73
  L 852.50 120.50
  Q 852.50 121.00 852.00 121.00
  L 851.16 121.00
  A 0.65 0.65 0.0 0 1 850.51 120.35
  L 850.50 111.72
  Q 850.50 111.11 851.09 110.93
  C 854.37 109.93 859.93 112.60 855.86 116.31
  A 0.72 0.72 0.0 0 0 855.74 117.23
  L 857.53 119.95
  A 0.63 0.63 0.0 0 1 857.30 120.85
  Q 856.31 121.36 855.62 120.38
  Q 854.78 119.19 853.94 117.41
  A 0.76 0.75 32.4 0 0 852.50 117.73
  Z
  M 852.49 112.97
  L 852.49 114.99
  A 0.50 0.50 0.0 0 0 852.98 115.49
  L 853.42 115.49
  A 1.78 1.34 0.2 0 0 855.21 114.15
  L 855.21 113.81
  A 1.78 1.34 0.2 0 0 853.44 112.47
  L 853.00 112.47
  A 0.50 0.50 0.0 0 0 852.49 112.97
  Z"
/>
<ellipse fill="#265787" cx="200.14" cy="151.02" rx="34.86" ry="31.61"/>
<path fill="#265787" d="
  M 425.51 168.75
  C 419.99 146.11 432.04 124.93 455.75 121.46
  C 486.44 116.97 510.60 129.28 509.47 163.54
  Q 509.45 164.01 508.99 164.01
  L 450.00 164.00
  Q 448.83 164.00 448.98 165.16
  Q 450.94 180.82 467.24 180.99
  C 475.47 181.07 479.65 177.81 483.95 171.38
  Q 484.26 170.92 484.75 171.19
  L 501.95 181.08
  A 0.50 0.50 0.0 0 1 502.08 181.84
  C 482.83 204.21 433.57 201.76 425.51 168.75
  Z
  M 449.74 149.50
  L 484.98 149.50
  A 0.10 0.10 0.0 0 0 485.08 149.40
  L 485.08 149.33
  A 16.97 14.11 -0.0 0 0 468.11 135.22
  L 466.61 135.22
  A 16.97 14.11 0.0 0 0 449.64 149.33
  L 449.64 149.40
  A 0.10 0.10 0.0 0 0 449.74 149.50
  Z"
/>
<path fill="#265787" d="
  M 693.83 163.57
  C 689.36 132.23 715.56 117.87 743.21 120.85
  C 767.04 123.42 779.89 139.41 778.43 163.57
  Q 778.40 164.00 777.97 164.00
  L 718.97 164.00
  A 0.83 0.82 87.7 0 0 718.15 164.89
  Q 719.10 177.83 731.89 180.59
  Q 745.67 183.56 753.08 171.32
  Q 753.37 170.86 753.84 171.13
  L 771.15 181.11
  A 0.43 0.42 -54.0 0 1 771.25 181.76
  C 758.88 195.77 738.96 198.80 721.78 194.52
  Q 697.37 188.44 693.83 163.57
  Z
  M 754.20 148.78
  C 751.66 130.32 720.39 130.72 718.84 148.56
  Q 718.78 149.24 719.47 149.25
  L 753.78 149.26
  A 0.42 0.42 0.0 0 0 754.20 148.78
  Z"
/>
<path fill="#265787" d="
  M 806.00 131.48
  A 0.39 0.39 0.0 0 0 806.69 131.74
  C 813.62 123.72 822.18 118.94 833.14 121.02
  Q 833.75 121.13 833.75 121.75
  L 833.75 139.00
  Q 833.75 139.84 832.92 139.72
  C 815.81 137.38 806.85 145.81 806.31 162.42
  Q 805.84 176.99 806.35 192.61
  A 1.34 1.34 0.0 0 1 805.01 194.00
  L 785.38 194.00
  A 1.37 1.37 0.0 0 1 784.01 192.63
  L 784.15 128.89
  A 0.53 0.52 90.0 0 1 784.67 128.36
  L 805.00 128.26
  A 0.99 0.99 0.0 0 1 806.00 129.25
  L 806.00 131.48
  Z"
/>
<path fill="#265787" d="
  M 537.47 133.09
  Q 553.19 117.77 573.55 122.16
  C 590.86 125.90 594.44 135.83 594.71 152.06
  Q 595.06 172.61 595.02 193.06
  A 0.95 0.95 0.0 0 1 594.07 194.01
  L 573.44 193.85
  A 0.56 0.55 1.5 0 1 572.89 193.28
  Q 573.33 174.93 572.71 156.48
  C 572.43 148.16 571.12 141.17 562.56 139.23
  C 549.57 136.29 537.30 144.13 537.13 158.07
  Q 536.92 175.78 537.02 193.22
  A 0.78 0.77 90.0 0 1 536.25 194.00
  L 515.50 194.00
  A 0.50 0.50 0.0 0 1 515.00 193.50
  L 515.00 128.95
  Q 515.00 128.40 515.55 128.40
  L 536.06 128.24
  A 1.00 1.00 0.0 0 1 537.07 129.32
  L 536.78 132.76
  A 0.41 0.41 0.0 0 0 537.47 133.09
  Z"
/>
</svg>
